<svg width="94" height="36" viewBox="0 0 94 36" fill="none" xmlns="http://www.w3.org/2000/svg">
<path d="M22.1292 14.0265V6.24878H14.1821V14.0265H6.23486V21.9737H14.1821V29.7515H22.1292V21.9737H30.0764V14.0265H22.1292ZM22.1292 21.8043H14.1821V14.1972H22.1292V21.8043Z" fill="#0166FF"/>
<path d="M47.1669 17.6326H54.7555V24.0753C53.2205 25.5671 50.8856 26.3454 48.1615 26.3454C42.8646 26.3454 39.5352 23.297 39.5352 18.3893C39.5352 13.4816 42.8646 10.4116 47.8372 10.4116C50.6045 10.4116 52.7016 11.2548 54.1718 12.6168L52.2476 14.7788C51.2098 13.8708 49.6316 13.287 47.8588 13.287C44.7671 13.287 42.7133 15.2544 42.7133 18.3893C42.7133 21.6323 44.8536 23.5348 48.2696 23.5348C49.6316 23.5348 50.8639 23.297 51.8801 22.5403V20.3135H47.1669V17.6326Z" fill="black"/>
<path d="M68.49 20.1405C68.49 20.3351 68.49 20.7891 68.4684 21.0269H59.3016C59.6259 22.7781 60.8366 23.7726 62.7824 23.7726C64.166 23.7726 65.3984 23.2538 66.1983 22.2593L68.0792 23.8591C66.9982 25.3509 65.2686 26.2805 62.5662 26.2805C58.6097 26.2805 56.2748 23.8591 56.2748 20.0973C56.2748 16.357 58.8043 13.914 62.4148 13.914C66.4793 13.914 68.49 16.5084 68.49 20.1405ZM62.4148 16.4003C60.9014 16.4003 59.6907 17.157 59.3232 18.8649H65.5713C65.3983 17.5678 64.4687 16.4003 62.4148 16.4003Z" fill="black"/>
<path d="M70.4358 26.0427V9.65491H73.4193V26.0427H70.4358Z" fill="black"/>
<path d="M81.322 26.3022C77.8628 26.3022 75.6144 23.9024 75.6144 20.1189C75.6144 16.3354 77.8845 13.9572 81.1923 13.9572C82.403 13.9572 83.8515 14.3032 84.8244 15.2544V9.65491H87.7647V26.0427H84.8677V24.8969C83.938 26.0211 82.4679 26.3022 81.322 26.3022ZM81.9706 23.6213C83.0948 23.6213 84.2623 23.1673 84.8677 22.0647V18.1515C84.2623 17.1786 83.0516 16.6381 81.9057 16.6381C80.0248 16.6381 78.6844 17.8921 78.6844 20.1189C78.6844 22.3025 79.9816 23.6213 81.9706 23.6213Z" fill="black"/>
</svg>
